<svg width="21" height="21" viewBox="0 0 21 21" fill="none" xmlns="http://www.w3.org/2000/svg">
<path d="M6.27778 1H3.11111C2.55121 1 2.01424 1.22242 1.61833 1.61833C1.22242 2.01424 1 2.55121 1 3.11111V6.27778M20 6.27778V3.11111C20 2.55121 19.7776 2.01424 19.3817 1.61833C18.9858 1.22242 18.4488 1 17.8889 1H14.7222M14.7222 20H17.8889C18.4488 20 18.9858 19.7776 19.3817 19.3817C19.7776 18.9858 20 18.4488 20 17.8889V14.7222M1 14.7222V17.8889C1 18.4488 1.22242 18.9858 1.61833 19.3817C2.01424 19.7776 2.55121 20 3.11111 20H6.27778" stroke="white" stroke-width="2" stroke-linecap="round" stroke-linejoin="round"/>
</svg>
