<svg width="17" height="16" viewBox="0 0 17 16" fill="none" xmlns="http://www.w3.org/2000/svg">
<path fill-rule="evenodd" clip-rule="evenodd" d="M5.96973 0H11.9697C14.7307 0 16.9697 2.239 16.9697 5V11C16.9697 13.761 14.7307 16 11.9697 16H5.96973C3.20873 16 0.969727 13.761 0.969727 11V5C0.969727 2.239 3.20873 0 5.96973 0ZM11.9697 14.5C13.8997 14.5 15.4697 12.93 15.4697 11V5C15.4697 3.07 13.8997 1.5 11.9697 1.5H5.96973C4.03973 1.5 2.46973 3.07 2.46973 5V11C2.46973 12.93 4.03973 14.5 5.96973 14.5H11.9697Z" fill="#1E2833"/>
<path fill-rule="evenodd" clip-rule="evenodd" d="M4.96973 8C4.96973 5.791 6.76073 4 8.96973 4C11.1787 4 12.9697 5.791 12.9697 8C12.9697 10.209 11.1787 12 8.96973 12C6.76073 12 4.96973 10.209 4.96973 8ZM6.46973 8C6.46973 9.378 7.59173 10.5 8.96973 10.5C10.3477 10.5 11.4697 9.378 11.4697 8C11.4697 6.621 10.3477 5.5 8.96973 5.5C7.59173 5.5 6.46973 6.621 6.46973 8Z" fill="#1E2833"/>
<circle cx="13.2693" cy="3.69999" r="0.533" fill="#1E2833"/>
</svg>
