<svg width="21" height="16" viewBox="0 0 21 16" fill="none" xmlns="http://www.w3.org/2000/svg">
<path d="M20.5253 1.881C19.7981 2.2 19.0232 2.41144 18.2153 2.51411C19.0464 2.01789 19.6807 1.23811 19.9789 0.298222C19.2041 0.760222 18.3485 1.08656 17.4367 1.26867C16.7009 0.485222 15.6523 0 14.5083 0C12.2887 0 10.5018 1.80156 10.5018 4.01011C10.5018 4.32789 10.5287 4.63344 10.5947 4.92433C7.26173 4.76178 4.3125 3.16433 2.33128 0.730889C1.98539 1.331 1.7825 2.01789 1.7825 2.75733C1.7825 4.14578 2.4975 5.37656 3.56328 6.08911C2.91917 6.07689 2.28728 5.88989 1.75195 5.59533C1.75195 5.60756 1.75195 5.62344 1.75195 5.63933C1.75195 7.58756 3.14162 9.20578 4.96395 9.57856C4.63762 9.66778 4.28195 9.71056 3.91284 9.71056C3.65617 9.71056 3.39706 9.69589 3.15384 9.64211C3.67328 11.2298 5.14728 12.397 6.89995 12.4349C5.53595 13.5019 3.80406 14.1448 1.92917 14.1448C1.60039 14.1448 1.28506 14.1301 0.969727 14.0898C2.74562 15.235 4.85028 15.8889 7.11995 15.8889C14.4973 15.8889 18.5306 9.77778 18.5306 4.48067C18.5306 4.30344 18.5245 4.13233 18.5159 3.96244C19.3116 3.39778 19.9802 2.69256 20.5253 1.881Z" fill="#1E2833"/>
</svg>
